<svg width="659" height="32" viewBox="0 0 659 32" fill="none" xmlns="http://www.w3.org/2000/svg">
<path d="M395.363 0.964844L381.167 20.9568V30.9528H371.423V20.9568L357.227 0.964844H368.651L376.295 12.7248L383.939 0.964844H395.363Z" fill="white"/>
<path d="M353.301 30.9528L351.242 26.2908H335.954L333.897 30.9528H323.312L337.257 0.964844H350.025L363.842 30.9528H353.301ZM338.978 19.3188H348.177L343.682 9.02885H343.431L338.978 19.3188Z" fill="white"/>
<path d="M307.762 0.964844C318.808 0.964844 324.772 5.03884 324.772 15.9588C324.772 26.9208 318.808 30.9528 307.762 30.9528H289.324V0.964844H307.762ZM305.788 8.60885H298.984V23.3508H305.788C311.206 23.3508 314.146 21.3348 314.146 15.9588C314.146 10.5828 311.206 8.60885 305.788 8.60885Z" fill="white"/>
<path d="M284.916 30.9528H275.256V0.964844H284.916V30.9528Z" fill="white"/>
<path d="M265.295 19.6128L272.519 30.9528H261.515L255.761 21.2928H246.689V30.9528H237.029V0.964844H259.919C268.487 0.964844 271.721 4.45084 271.721 10.8348C271.721 16.2108 269.159 18.2688 265.295 19.2348V19.6128ZM257.651 14.4888C260.045 14.4888 260.969 13.4808 260.969 11.5908C260.969 9.65884 260.045 8.69284 257.651 8.69284H246.689V14.4888H257.651Z" fill="white"/>
<path d="M233.514 8.52484H212.892V13.8588H232.548V20.9568H212.892V30.9528H203.232V0.964844H233.514V8.52484Z" fill="white"/>
<path d="M172.917 11.5908L186.777 30.9528H175.101L165.945 17.7648L160.023 22.9728V30.9528H150.363V0.964844H160.023V13.0188L172.959 0.964844H184.845L172.917 11.5908Z" fill="white"/>
<path d="M135.423 12.684C135.297 10.668 133.659 7.812 127.947 7.812C122.277 7.812 119.337 10.92 119.337 15.96C119.337 21.042 122.277 24.15 127.947 24.15C133.659 24.15 135.213 21.462 135.381 18.648H146.889C146.679 27.342 139.581 31.962 127.947 31.962C116.355 31.962 108.711 26.922 108.711 15.96C108.711 5.04 116.355 0 127.947 0C139.581 0 146.595 4.62 146.805 12.684H135.423Z" fill="white"/>
<path d="M99.6189 30.9528L97.5609 26.2908H82.2729L80.2149 30.9528H69.6309L83.5749 0.964844H96.3429L110.161 30.9528H99.6189ZM85.2969 19.3188H94.4949L90.0009 9.02885H89.7489L85.2969 19.3188Z" fill="white"/>
<path d="M68.6287 30.9528H38.4727V0.964844H48.1327V23.3928H68.6287V30.9528Z" fill="white"/>
<path d="M29.61 14.9088C32.592 15.5808 34.944 17.3868 34.944 22.1748C34.944 27.8448 32.046 30.9528 24.36 30.9528H0V0.964844H23.604C31.038 0.964844 33.852 4.07284 33.852 8.73484C33.852 12.0108 32.214 13.8588 29.61 14.6148V14.9088ZM20.538 12.6828C22.428 12.6828 23.352 11.9688 23.352 10.2888C23.352 8.56684 22.428 7.85285 20.538 7.85285H9.66V12.6828H20.538ZM21.126 24.1908C23.478 24.1908 24.318 23.2668 24.318 21.4188C24.318 19.5708 23.478 18.6468 21.126 18.6468H9.66V24.1908H21.126Z" fill="white"/>
<path d="M658.837 8.52484H638.215V13.8588H657.871V20.9568H638.215V30.9528H628.555V0.964844H658.837V8.52484Z" fill="url(#paint0_linear_345_1947)"/>
<path d="M624.04 8.52484H603.418V13.8588H623.074V20.9568H603.418V30.9528H593.758V0.964844H624.04V8.52484Z" fill="url(#paint1_linear_345_1947)"/>
<path d="M569.533 0C581.671 0 589.273 5.04 589.273 15.96C589.273 26.922 581.671 31.962 569.533 31.962C557.437 31.962 549.793 26.922 549.793 15.96C549.793 5.04 557.437 0 569.533 0ZM569.533 24.15C575.707 24.15 578.647 21.042 578.647 15.96C578.647 10.92 575.707 7.812 569.533 7.812C563.359 7.812 560.419 10.92 560.419 15.96C560.419 21.042 563.359 24.15 569.533 24.15Z" fill="url(#paint2_linear_345_1947)"/>
<path d="M494.369 0.964844C501.005 0.964844 504.071 3.61084 504.071 9.57485C504.071 15.5808 501.005 18.1848 494.369 18.1848C487.775 18.1848 484.709 15.5808 484.709 9.57485C484.709 3.61084 487.775 0.964844 494.369 0.964844ZM514.697 1.55284H520.115L500.963 30.9528H495.545L514.697 1.55284ZM494.369 13.6068C496.217 13.6068 497.519 12.7668 497.519 9.57485C497.519 6.42484 496.217 5.58484 494.369 5.58484C492.521 5.58484 491.261 6.42484 491.261 9.57485C491.261 12.7668 492.521 13.6068 494.369 13.6068ZM521.291 14.3208C527.885 14.3208 530.951 16.9668 530.951 22.9308C530.951 28.9368 527.885 31.5408 521.291 31.5408C514.655 31.5408 511.589 28.9368 511.589 22.9308C511.589 16.9668 514.655 14.3208 521.291 14.3208ZM521.291 26.9628C523.139 26.9628 524.399 26.1228 524.399 22.9308C524.399 19.7808 523.139 18.9408 521.291 18.9408C519.443 18.9408 518.183 19.7808 518.183 22.9308C518.183 26.1228 519.443 26.9628 521.291 26.9628Z" fill="url(#paint3_linear_345_1947)"/>
<path d="M463.015 0.628906C475.573 0.628906 481.243 6.21491 481.243 16.2529C481.243 26.3329 475.573 31.9189 463.015 31.9189C450.457 31.9189 444.787 26.3329 444.787 16.2529C444.787 6.21491 450.457 0.628906 463.015 0.628906ZM463.015 24.6949C468.811 24.6949 470.911 21.6709 470.911 16.2529C470.911 10.8769 468.811 7.81091 463.015 7.81091C457.219 7.81091 455.119 10.8769 455.119 16.2529C455.119 21.6709 457.219 24.6949 463.015 24.6949Z" fill="url(#paint4_linear_345_1947)"/>
<path d="M439.198 1.55273V8.02074H417.61L417.4 12.0527H417.652C419.164 11.3387 421.642 10.3307 425.968 10.3307C436.804 10.3307 441.298 13.2707 441.298 20.9147C441.298 28.5587 436.804 31.9187 424.246 31.9187C411.898 31.9187 407.74 28.5587 407.362 22.2167H418.072C418.366 24.0227 420.046 25.0727 424.246 25.0727C428.614 25.0727 430.714 23.9807 430.714 21.0827C430.714 18.1847 428.614 17.0927 424.372 17.0927C420.97 17.0927 419.122 17.8067 418.45 18.1007H408.37L409.336 1.55273H439.198Z" fill="url(#paint5_linear_345_1947)"/>
<defs>
<linearGradient id="paint0_linear_345_1947" x1="406.228" y1="14.4528" x2="660.228" y2="14.4528" gradientUnits="userSpaceOnUse">
<stop stop-color="#FB994C"/>
<stop offset="1" stop-color="#FBDB4C"/>
</linearGradient>
<linearGradient id="paint1_linear_345_1947" x1="406.228" y1="14.4528" x2="660.228" y2="14.4528" gradientUnits="userSpaceOnUse">
<stop stop-color="#FB994C"/>
<stop offset="1" stop-color="#FBDB4C"/>
</linearGradient>
<linearGradient id="paint2_linear_345_1947" x1="406.228" y1="14.454" x2="660.228" y2="14.454" gradientUnits="userSpaceOnUse">
<stop stop-color="#FB994C"/>
<stop offset="1" stop-color="#FBDB4C"/>
</linearGradient>
<linearGradient id="paint3_linear_345_1947" x1="406.228" y1="14.4528" x2="660.228" y2="14.4528" gradientUnits="userSpaceOnUse">
<stop stop-color="#FB994C"/>
<stop offset="1" stop-color="#FBDB4C"/>
</linearGradient>
<linearGradient id="paint4_linear_345_1947" x1="406.228" y1="14.4529" x2="660.228" y2="14.4529" gradientUnits="userSpaceOnUse">
<stop stop-color="#FB994C"/>
<stop offset="1" stop-color="#FBDB4C"/>
</linearGradient>
<linearGradient id="paint5_linear_345_1947" x1="406.228" y1="14.4527" x2="660.228" y2="14.4527" gradientUnits="userSpaceOnUse">
<stop stop-color="#FB994C"/>
<stop offset="1" stop-color="#FBDB4C"/>
</linearGradient>
</defs>
</svg>
