<svg width="24" height="24" viewBox="0 0 24 24" fill="none" xmlns="http://www.w3.org/2000/svg">
<path d="M12 24C18.6274 24 24 18.6274 24 12C24 5.37258 18.6274 0 12 0C5.37258 0 0 5.37258 0 12C0 18.6274 5.37258 24 12 24Z" fill="#F4B92D"/>
<path d="M16.8566 10.9127C16.9998 9.65796 16.1019 8.85516 14.7267 8.34032L15.2337 6.56552L14.1414 6.26119L13.6301 8.02767C13.3437 7.94615 13.0557 7.8518 12.7595 7.77657L13.2655 6.01899L12.1731 5.71472L11.6661 7.48952C11.4272 7.42941 9.45931 6.87719 9.45931 6.87719L9.12772 8.03238C9.12772 8.03238 9.93926 8.24053 9.92336 8.25219C10.3693 8.37495 10.4388 8.6711 10.4182 8.9004L9.03163 13.7663C8.97305 13.8964 8.82727 14.0924 8.51987 14.0107C8.53041 14.0286 7.72555 13.7887 7.72555 13.7887L7.13818 15.0199C7.13818 15.0199 9.08769 15.5675 9.34321 15.6402L8.83012 17.4354L9.9225 17.7397L10.4421 15.9334C10.7385 16.0236 11.0295 16.1078 11.315 16.1858L10.7983 17.9819L11.8908 18.2862L12.4025 16.4932C14.0722 16.984 15.6424 16.6671 16.2529 15.1513C16.6134 14.2332 16.0906 13.009 15.3648 12.4869C16.0847 12.3444 16.6834 11.8761 16.8566 10.9127ZM14.2302 14.3292C13.605 15.8186 11.5637 14.8696 10.8241 14.6672L11.484 12.2805C12.2259 12.4843 14.6278 12.9292 14.2302 14.3292ZM14.7186 10.8432C14.1952 12.1857 12.4508 11.372 11.8353 11.1993L12.4319 9.0324C13.0471 9.21076 14.9813 9.47266 14.7186 10.8432Z" fill="white"/>
</svg>
