<svg width="24" height="24" viewBox="0 0 24 24" fill="none" xmlns="http://www.w3.org/2000/svg">
<path d="M12 24C5.36797 24 0 18.6329 0 12C0 5.36797 5.36712 0 12 0C18.632 0 24 5.36707 24 12C24 18.6322 18.6327 24 12 24Z" fill="#677EE3"/>
<path d="M12.1375 3C12.1375 3.05687 12.1375 3.11374 12.1375 3.17061C12.1375 5.27483 12.1375 7.40749 12.1375 9.51171C12.1375 9.54015 12.1375 9.59702 12.1375 9.62546C12.1375 9.65389 12.1091 9.68233 12.0807 9.68233C11.882 9.76763 11.7117 9.85294 11.513 9.93825C11.2575 10.052 10.9736 10.1657 10.7181 10.3079C10.4058 10.4501 10.0935 10.5923 9.78122 10.7344C9.52572 10.8482 9.27021 10.9619 9.01471 11.0757C8.70243 11.2178 8.39015 11.36 8.07787 11.5022C7.82237 11.6159 7.56686 11.7297 7.28297 11.8719C7.08425 11.9572 6.85713 12.0709 6.65841 12.1562C6.63002 12.1562 6.63002 12.1846 6.60163 12.1562C6.60163 12.1562 6.60163 12.1562 6.57324 12.1562C6.65841 12.014 6.74358 11.9003 6.82874 11.7581C7.28297 10.9904 7.76559 10.2226 8.21981 9.45484C8.70243 8.63022 9.21344 7.80559 9.69605 6.98096C10.1503 6.2132 10.6045 5.44545 11.0587 4.70613C11.3994 4.13742 11.7401 3.59714 12.0524 3.02844C12.1091 3.02844 12.1091 3 12.1375 3C12.1375 3 12.1091 3 12.1375 3Z" fill="#FCFCFE"/>
<path d="M17.6448 12.1564C17.2189 12.4407 16.7647 12.6966 16.3389 12.9526C14.9478 13.7772 13.5851 14.5734 12.1941 15.398C12.1657 15.398 12.1657 15.4264 12.1373 15.4264C12.1089 15.4264 12.1089 15.398 12.1089 15.398C12.1089 15.3696 12.1089 15.3411 12.1089 15.3127C12.1089 13.4644 12.1089 11.6161 12.1089 9.76779C12.1089 9.73936 12.1089 9.71092 12.1089 9.68249C12.1089 9.65405 12.1373 9.65405 12.1657 9.65405C12.2792 9.71092 12.3928 9.76779 12.5347 9.82467C12.8754 9.99528 13.2445 10.1375 13.5851 10.3081C13.8974 10.4502 14.1813 10.5924 14.4936 10.7062C14.8059 10.8483 15.0898 10.9905 15.402 11.1327C15.6575 11.2464 15.9414 11.3602 16.1969 11.5024C16.4524 11.6161 16.7363 11.7298 16.9918 11.872C17.1906 11.9573 17.3893 12.0711 17.6164 12.1564C17.6164 12.1279 17.6164 12.1564 17.6448 12.1564Z" fill="#8597E8"/>
<path d="M12.1384 20.9999C12.11 20.9999 12.1384 20.9999 12.1384 20.9999C12.11 20.9999 12.11 20.9999 12.0817 20.9715C11.5139 20.1753 10.9745 19.4075 10.4067 18.6114C9.83891 17.8152 9.27112 17.019 8.70334 16.2228C8.16394 15.455 7.59616 14.6873 7.05677 13.8911C6.91482 13.692 6.77287 13.493 6.63093 13.2939C6.63093 13.2655 6.60254 13.2655 6.60254 13.2371C6.63093 13.2371 6.63093 13.2655 6.65932 13.2655C7.42583 13.7205 8.22072 14.1754 8.98723 14.6304C9.8673 15.1707 10.7757 15.6825 11.6558 16.2228C11.7978 16.3081 11.9681 16.3934 12.11 16.4787C12.1384 16.4787 12.1384 16.5071 12.1384 16.5356C12.1384 16.564 12.1384 16.5924 12.1384 16.6209C12.1384 18.0426 12.1384 19.436 12.1384 20.8578C12.1384 20.8862 12.1384 20.9431 12.1384 20.9999Z" fill="#FCFCFE"/>
<path d="M6.60254 12.1567C6.60254 12.1567 6.63093 12.1567 6.60254 12.1567C6.63093 12.1567 6.63093 12.1567 6.60254 12.1567C6.60254 12.1851 6.60254 12.1851 6.60254 12.1567Z" fill="#808080"/>
<path d="M6.63037 12.185C6.63037 12.1566 6.63037 12.1566 6.63037 12.185C6.91426 12.0429 7.19815 11.9291 7.48205 11.7869C7.85111 11.6163 8.22017 11.4457 8.58923 11.2751C8.87312 11.1329 9.15701 11.0192 9.4409 10.877C9.83835 10.678 10.2642 10.5074 10.6616 10.3083C10.9455 10.1946 11.2294 10.0524 11.5133 9.93864C11.712 9.85334 11.9108 9.76803 12.1095 9.65429C12.1379 9.65429 12.1379 9.62585 12.1663 9.62585C12.1663 9.62585 12.1663 9.62585 12.1663 9.65429C12.1663 9.68273 12.1663 9.68273 12.1663 9.71116C12.1663 11.5879 12.1663 13.4646 12.1663 15.3414C12.1663 15.3698 12.1663 15.3982 12.1663 15.4267C12.1379 15.4551 12.1379 15.4267 12.1095 15.4267C12.0243 15.3698 11.9391 15.3414 11.8824 15.2845C10.1506 14.2608 8.41889 13.2372 6.68715 12.2135C6.65876 12.185 6.63037 12.185 6.63037 12.185Z" fill="#C2CCF3"/>
<path d="M17.6173 13.2371C17.6173 13.2655 17.6173 13.2655 17.5889 13.2939C15.9423 15.6256 14.2958 17.9289 12.6492 20.2606C12.4789 20.5165 12.3085 20.744 12.1382 20.9999C12.1382 20.9999 12.1382 20.9999 12.1382 20.9715C12.1382 20.9431 12.1382 20.9431 12.1382 20.9146C12.1382 19.4644 12.1382 18.0142 12.1382 16.564C12.1382 16.5356 12.1382 16.5071 12.1382 16.4787C12.5072 16.2512 12.8763 16.0237 13.2454 15.8247C14.6932 14.9716 16.1411 14.1186 17.5889 13.2655C17.5889 13.2371 17.6173 13.2371 17.6173 13.2371Z" fill="#C2CCF3"/>
<path d="M12.1382 9.65439C12.1382 9.62595 12.1382 9.59752 12.1382 9.59752C12.1382 7.43642 12.1382 5.24689 12.1382 3.0858C12.1382 3.05737 12.1382 3.02893 12.1382 3.02893C13.9551 6.04309 15.772 9.05724 17.5889 12.0714C17.6173 12.0998 17.6457 12.1283 17.6457 12.1567C17.5321 12.0998 17.4186 12.043 17.2766 11.9861C17.1347 11.9292 16.9927 11.8439 16.8508 11.787C16.7656 11.7586 16.6805 11.7017 16.5669 11.6733C16.425 11.6164 16.2546 11.5311 16.1127 11.4743C16.0275 11.4458 15.9423 11.3889 15.8572 11.3605C15.6584 11.2752 15.4597 11.1899 15.261 11.1046C15.1474 11.0477 15.0623 11.0193 14.9487 10.9624C14.8068 10.9055 14.6648 10.8202 14.5229 10.7634C14.4377 10.7349 14.3525 10.6781 14.2674 10.6496C14.0686 10.5643 13.8699 10.479 13.6712 10.3937C13.5576 10.3368 13.4725 10.3084 13.3589 10.2515C13.217 10.1947 13.075 10.1094 12.9331 10.0525C12.8479 9.99561 12.7344 9.96718 12.6492 9.91031C12.4789 9.825 12.3085 9.73969 12.1382 9.65439Z" fill="#C2CCF3"/>
</svg>
